<?xml version="1.0" standalone="no"?><!DOCTYPE svg PUBLIC "-//W3C//DTD SVG 1.1//EN" "http://www.w3.org/Graphics/SVG/1.1/DTD/svg11.dtd"><svg t="1577440256913" class="icon" viewBox="0 0 1024 1024" version="1.1" xmlns="http://www.w3.org/2000/svg" p-id="12015" xmlns:xlink="http://www.w3.org/1999/xlink" width="64" height="64"><defs><style type="text/css"></style></defs><path d="M799.9 681.3c7-0.2 14 1.2 20.7 5.6-24.3-15.6-40.3-42.8-40.3-73.9V439.5c0-127.1-91.9-233.2-214.7-259.3V174c0-32.4-26.2-58.5-58.5-58.5s-58.5 26.2-58.5 58.5v6.2c-122.8 26.1-214.7 132.1-214.7 259.3V613c0 31.1-16.1 58.3-40.3 73.9 6.8-4.4 13.7-5.9 20.7-5.6-21.5 0.1-38.9 17.4-38.9 39s17.4 39 39 39h585.3c21.6 0 39-17.4 39-39 0.1-21.4-17.3-38.9-38.8-39zM507.2 896c53.9 0 97.6-43.7 97.6-97.6H409.6c0 53.9 43.6 97.6 97.6 97.6z" p-id="12016"></path></svg>