<?xml version="1.0" encoding="utf-8"?>
<svg viewBox="12.315 15.468 500 500" xmlns="http://www.w3.org/2000/svg">
  <defs>
    <path id="path-0" d="M 122.682 101.853 C 136.856 70.734 182.766 64.624 205.839 59.693 C 232.355 55.247 267.996 78.592 288.723 87.186 C 301.784 95.328 305.289 104.327 310.044 113.837 C 312.922 120.706 314.586 125.101 315.374 129.827 L 315.616 131.281 C 315.943 133.899 316.343 136.401 316.343 139.033" style="fill: none;"/>
    <path id="path-1" d="M 241.99 156.831 C 198.555 142.823 173.662 145.095 148.068 152.15 C 137.109 156.074 129.951 162.537 124.262 168.14 C 119.471 171.922 115.808 174.202 111.716 176.62 C 102.997 182.587 94.958 189.395 91.797 197.698 C 88.975 207.118 89.397 212.647 81.714 207.836 C 69.765 191.059 70.292 173.715 72.754 157.558 C 76.175 145.77 79.417 138.099 86.564 132.294 C 99.224 127.103 111.17 125.898 122.905 125.898 C 135.951 125.898 145.731 127.11 155.613 127.11 C 167.015 127.11 175.981 127.837 184.928 127.837 C 194.378 127.837 201.5 127.587 208.429 127.587 C 218.211 128.071 226.873 129.525 235.564 129.525 C 248.806 128.787 265.791 118.352 276.565 114.787 C 295.386 109.552 303.033 105.065 311.166 114.824 C 328.017 131.676 330.843 138.068 350.899 138.068 C 360.586 133.977 366.264 131.465 369.797 124.292 C 374.33 114.84 373.852 101.829 376.338 92.609 C 378.977 83.838 379.972 75.474 379.972 68.553 L 380.215 66.343 C 380.215 63.284 379.723 60.341 379.723 57.256" style="fill: none;"/>
    <path id="path-2" d="M 22.681 296.495 C 32.831 295.265 38.537 294.3 43.759 293.543 C 48.95 290.784 54.371 290.433 59.022 286.655 C 67.383 280.042 75.155 275.537 82.039 269.192 C 88.024 261.126 92.732 258.595 99.24 254.924 C 108.281 250.678 150.833 233.916 140.111 244.476 C 130.719 247.65 149.383 242.157 151.923 238.289 C 161.305 224.522 170.683 212.456 179.512 200.18 C 198.163 188.006 220.909 188.225 238.941 192.733 L 240.637 193.46 C 242.109 194.932 242.575 196.007 242.575 198.063" style="fill: none;"/>
    <pattern id="pattern-0" x="0" y="0" width="25" height="25" patternUnits="userSpaceOnUse" viewBox="0 0 100 100">
      <rect x="0" y="0" width="50" height="100" style="fill: black;"/>
    </pattern>
    <linearGradient id="gradient-0" gradientUnits="userSpaceOnUse" x1="262.228" y1="15.439" x2="262.228" y2="514.498">
      <stop offset="0" style="stop-color: rgba(57, 132, 207, 1)"/>
      <stop offset="1" style="stop-color: rgba(32, 81, 131, 1)"/>
    </linearGradient>
  </defs>
  <rect style="stroke-width: 3px; stroke-miterlimit: 15; stroke-linejoin: round; fill: url(#gradient-0);" transform="matrix(0.999998, -0.001881, -0.000337, 1.000002, 0.177415, 0.992317)" x="12.311" y="15.439" width="499.833" height="499.059" rx="100.111" ry="100.111"/>
  <text transform="matrix(17.139797, 0, 0, 12.057272, -2706.985352, -1327.124634)" style="fill: rgb(255, 255, 255); font-size: 18.9927px; font-weight: 300; line-height: 31.9807px; white-space: pre;" x="159.873" y="139.179">HY</text>
</svg>